<svg xmlns="http://www.w3.org/2000/svg" viewBox="0 0 900 620" role="img" aria-labelledby="title desc">
  <title id="title">Students learning software development</title>
  <desc id="desc">A modern training room illustration with learners, code panels, and placement metrics.</desc>
  <defs>
    <linearGradient id="bg" x1="0" x2="1" y1="0" y2="1">
      <stop offset="0" stop-color="#f8fbff"/>
      <stop offset=".55" stop-color="#eef6ff"/>
      <stop offset="1" stop-color="#e9fbf7"/>
    </linearGradient>
    <linearGradient id="blue" x1="0" x2="1">
      <stop offset="0" stop-color="#2f5fd3"/>
      <stop offset="1" stop-color="#0aa99a"/>
    </linearGradient>
    <filter id="shadow" x="-20%" y="-20%" width="140%" height="140%">
      <feDropShadow dx="0" dy="20" stdDeviation="25" flood-color="#101828" flood-opacity=".16"/>
    </filter>
  </defs>
  <rect width="900" height="620" rx="34" fill="url(#bg)"/>
  <circle cx="750" cy="110" r="90" fill="#dbeafe"/>
  <circle cx="150" cy="520" r="110" fill="#ccfbf1"/>
  <g opacity=".55" fill="#cbd5e1">
    <circle cx="90" cy="82" r="4"/><circle cx="120" cy="82" r="4"/><circle cx="150" cy="82" r="4"/><circle cx="180" cy="82" r="4"/>
    <circle cx="90" cy="112" r="4"/><circle cx="120" cy="112" r="4"/><circle cx="150" cy="112" r="4"/><circle cx="180" cy="112" r="4"/>
    <circle cx="90" cy="142" r="4"/><circle cx="120" cy="142" r="4"/><circle cx="150" cy="142" r="4"/><circle cx="180" cy="142" r="4"/>
  </g>
  <g filter="url(#shadow)">
    <rect x="150" y="105" width="600" height="330" rx="24" fill="#101828"/>
    <rect x="178" y="135" width="544" height="275" rx="16" fill="#fff"/>
    <rect x="206" y="165" width="208" height="26" rx="8" fill="#dbeafe"/>
    <rect x="206" y="210" width="310" height="16" rx="8" fill="#e2e8f0"/>
    <rect x="206" y="242" width="250" height="16" rx="8" fill="#e2e8f0"/>
    <rect x="206" y="286" width="168" height="48" rx="12" fill="url(#blue)"/>
    <g transform="translate(505 165)">
      <rect width="170" height="170" rx="18" fill="#f8fafc" stroke="#d9e2ec"/>
      <path d="M38 58h94M38 86h70M38 114h104" stroke="#2f5fd3" stroke-width="12" stroke-linecap="round"/>
      <circle cx="42" cy="30" r="11" fill="#0aa99a"/>
      <circle cx="75" cy="30" r="11" fill="#f59e0b"/>
      <circle cx="108" cy="30" r="11" fill="#ef4444"/>
    </g>
  </g>
  <g transform="translate(116 400)" filter="url(#shadow)">
    <rect width="230" height="108" rx="20" fill="#fff"/>
    <circle cx="58" cy="54" r="30" fill="#dbeafe"/>
    <path d="M48 54h20M58 44v20" stroke="#2f5fd3" stroke-width="8" stroke-linecap="round"/>
    <text x="98" y="48" font-family="Arial, sans-serif" font-size="20" font-weight="700" fill="#101828">95% Support</text>
    <text x="98" y="74" font-family="Arial, sans-serif" font-size="15" fill="#667085">Placement ready</text>
  </g>
  <g transform="translate(575 412)" filter="url(#shadow)">
    <rect width="210" height="88" rx="20" fill="#fff"/>
    <rect x="26" y="24" width="48" height="48" rx="14" fill="#ccfbf1"/>
    <path d="M38 48h24M50 36v24" stroke="#0aa99a" stroke-width="7" stroke-linecap="round"/>
    <text x="92" y="42" font-family="Arial, sans-serif" font-size="20" font-weight="700" fill="#101828">Live Projects</text>
    <text x="92" y="66" font-family="Arial, sans-serif" font-size="15" fill="#667085">Portfolio work</text>
  </g>
</svg>
